<mxfile host="app.diagrams.net" agent="Mozilla/5.0 (Windows NT 10.0; Win64; x64) AppleWebKit/537.36 (KHTML, like Gecko) Chrome/135.0.0.0 Safari/537.36" version="27.0.2">
  <diagram name="Page-1" id="A1YvhQOvNIOFEGjP7USs">
    <mxGraphModel dx="1130" dy="614" grid="1" gridSize="10" guides="1" tooltips="1" connect="1" arrows="1" fold="1" page="1" pageScale="1" pageWidth="850" pageHeight="1100" math="0" shadow="0">
      <root>
        <mxCell id="0" />
        <mxCell id="1" parent="0" />
        <mxCell id="bI1rbvezzR92f5Q_wBQh-1" value="Raw audio wav" style="rounded=0;whiteSpace=wrap;html=1;fillColor=#dae8fc;strokeColor=#6c8ebf;fontStyle=1" vertex="1" parent="1">
          <mxGeometry x="320" y="570" width="120" height="60" as="geometry" />
        </mxCell>
        <mxCell id="bI1rbvezzR92f5Q_wBQh-2" value="" style="endArrow=classic;html=1;rounded=0;" edge="1" parent="1">
          <mxGeometry width="50" height="50" relative="1" as="geometry">
            <mxPoint x="379.5" y="570" as="sourcePoint" />
            <mxPoint x="380" y="530" as="targetPoint" />
          </mxGeometry>
        </mxCell>
        <mxCell id="bI1rbvezzR92f5Q_wBQh-3" value="Chunk audio" style="rounded=0;whiteSpace=wrap;html=1;fillColor=#d5e8d4;strokeColor=#82b366;fontStyle=1" vertex="1" parent="1">
          <mxGeometry x="320" y="470" width="120" height="60" as="geometry" />
        </mxCell>
        <mxCell id="bI1rbvezzR92f5Q_wBQh-5" value="Transcribe chunks&lt;div&gt;with Whisper&lt;/div&gt;" style="rounded=0;whiteSpace=wrap;html=1;fillColor=#fff2cc;strokeColor=#d6b656;fontStyle=1" vertex="1" parent="1">
          <mxGeometry x="320" y="370" width="120" height="60" as="geometry" />
        </mxCell>
        <mxCell id="bI1rbvezzR92f5Q_wBQh-7" value="" style="endArrow=classic;html=1;rounded=0;" edge="1" parent="1">
          <mxGeometry width="50" height="50" relative="1" as="geometry">
            <mxPoint x="378.5" y="470" as="sourcePoint" />
            <mxPoint x="379" y="430" as="targetPoint" />
          </mxGeometry>
        </mxCell>
        <mxCell id="bI1rbvezzR92f5Q_wBQh-13" value="Outlier Detection" style="rounded=0;whiteSpace=wrap;html=1;fillColor=#ffe6cc;strokeColor=#d79b00;fontStyle=1" vertex="1" parent="1">
          <mxGeometry x="320" y="270" width="120" height="60" as="geometry" />
        </mxCell>
        <mxCell id="bI1rbvezzR92f5Q_wBQh-14" value="" style="endArrow=classic;startArrow=classic;html=1;rounded=0;" edge="1" parent="1" target="bI1rbvezzR92f5Q_wBQh-5">
          <mxGeometry width="50" height="50" relative="1" as="geometry">
            <mxPoint x="270" y="400" as="sourcePoint" />
            <mxPoint x="314" y="386" as="targetPoint" />
          </mxGeometry>
        </mxCell>
        <mxCell id="bI1rbvezzR92f5Q_wBQh-15" value="Inspect transcriptions for errors" style="rounded=0;whiteSpace=wrap;html=1;fillColor=#fff2cc;strokeColor=#d6b656;fontStyle=1" vertex="1" parent="1">
          <mxGeometry x="150" y="370" width="120" height="60" as="geometry" />
        </mxCell>
        <mxCell id="bI1rbvezzR92f5Q_wBQh-16" value="" style="endArrow=classic;startArrow=classic;html=1;rounded=0;" edge="1" parent="1">
          <mxGeometry width="50" height="50" relative="1" as="geometry">
            <mxPoint x="270" y="501" as="sourcePoint" />
            <mxPoint x="320" y="501" as="targetPoint" />
          </mxGeometry>
        </mxCell>
        <mxCell id="bI1rbvezzR92f5Q_wBQh-17" value="Inspect chunks for audio without speech" style="rounded=0;whiteSpace=wrap;html=1;fillColor=#d5e8d4;strokeColor=#82b366;fontStyle=1" vertex="1" parent="1">
          <mxGeometry x="150" y="470" width="120" height="60" as="geometry" />
        </mxCell>
        <mxCell id="bI1rbvezzR92f5Q_wBQh-18" value="" style="endArrow=classic;html=1;rounded=0;" edge="1" parent="1">
          <mxGeometry width="50" height="50" relative="1" as="geometry">
            <mxPoint x="378.5" y="369" as="sourcePoint" />
            <mxPoint x="379" y="329" as="targetPoint" />
          </mxGeometry>
        </mxCell>
        <mxCell id="bI1rbvezzR92f5Q_wBQh-19" value="Fine-tune model" style="rounded=0;whiteSpace=wrap;html=1;fontStyle=1;fillColor=#f5f5f5;fontColor=#333333;strokeColor=#666666;" vertex="1" parent="1">
          <mxGeometry x="320" y="172" width="120" height="60" as="geometry" />
        </mxCell>
        <mxCell id="bI1rbvezzR92f5Q_wBQh-20" value="" style="endArrow=classic;html=1;rounded=0;" edge="1" parent="1">
          <mxGeometry width="50" height="50" relative="1" as="geometry">
            <mxPoint x="378.5" y="271" as="sourcePoint" />
            <mxPoint x="379" y="231" as="targetPoint" />
          </mxGeometry>
        </mxCell>
        <mxCell id="bI1rbvezzR92f5Q_wBQh-21" value="" style="curved=1;endArrow=classic;html=1;rounded=0;entryX=1;entryY=1;entryDx=0;entryDy=0;exitX=1.001;exitY=0.384;exitDx=0;exitDy=0;exitPerimeter=0;" edge="1" parent="1" source="bI1rbvezzR92f5Q_wBQh-5" target="bI1rbvezzR92f5Q_wBQh-19">
          <mxGeometry width="50" height="50" relative="1" as="geometry">
            <mxPoint x="410" y="370" as="sourcePoint" />
            <mxPoint x="500" y="230" as="targetPoint" />
            <Array as="points">
              <mxPoint x="460" y="370" />
              <mxPoint x="528" y="363" />
              <mxPoint x="450" y="320" />
              <mxPoint x="520" y="280" />
            </Array>
          </mxGeometry>
        </mxCell>
      </root>
    </mxGraphModel>
  </diagram>
</mxfile>
